<svg width="136" height="35" viewBox="0 0 136 35" fill="none" xmlns="http://www.w3.org/2000/svg">
<path d="M47.462 22.1415C45.734 22.1415 44.384 21.7215 43.412 20.8815C42.44 20.0295 41.924 18.8235 41.864 17.2635C41.852 16.9155 41.846 16.3635 41.846 15.6075C41.846 14.8515 41.852 14.2995 41.864 13.9515C41.924 12.4275 42.446 11.2515 43.43 10.4235C44.426 9.59555 45.77 9.18155 47.462 9.18155C48.602 9.18155 49.592 9.36755 50.432 9.73955C51.284 10.1115 51.932 10.5855 52.376 11.1615C52.832 11.7375 53.072 12.3315 53.096 12.9435C53.096 13.0515 53.054 13.1415 52.97 13.2135C52.898 13.2855 52.808 13.3215 52.7 13.3215H50.072C49.952 13.3215 49.856 13.3035 49.784 13.2675C49.712 13.2315 49.652 13.1655 49.604 13.0695C49.448 12.7215 49.202 12.4215 48.866 12.1695C48.53 11.9055 48.062 11.7735 47.462 11.7735C46.034 11.7735 45.284 12.5295 45.212 14.0415C45.2 14.3775 45.194 14.8995 45.194 15.6075C45.194 16.3035 45.2 16.8255 45.212 17.1735C45.284 18.7575 46.052 19.5495 47.516 19.5495C48.224 19.5495 48.788 19.3695 49.208 19.0095C49.64 18.6375 49.856 18.0735 49.856 17.3175V16.9755H48.164C48.032 16.9755 47.924 16.9335 47.84 16.8495C47.756 16.7535 47.714 16.6395 47.714 16.5075V15.1755C47.714 15.0435 47.756 14.9355 47.84 14.8515C47.924 14.7555 48.032 14.7075 48.164 14.7075H52.7C52.832 14.7075 52.94 14.7555 53.024 14.8515C53.108 14.9355 53.15 15.0435 53.15 15.1755V17.2275C53.15 18.2475 52.916 19.1295 52.448 19.8735C51.98 20.6055 51.314 21.1695 50.45 21.5655C49.598 21.9495 48.602 22.1415 47.462 22.1415ZM59.4451 22.1415C57.9571 22.1415 56.8111 21.7875 56.0071 21.0795C55.2031 20.3715 54.7651 19.3755 54.6931 18.0915C54.6811 17.9355 54.6751 17.6655 54.6751 17.2815C54.6751 16.8975 54.6811 16.6275 54.6931 16.4715C54.7651 15.1995 55.2151 14.2095 56.0431 13.5015C56.8711 12.7815 58.0051 12.4215 59.4451 12.4215C60.8971 12.4215 62.0371 12.7815 62.8651 13.5015C63.6931 14.2095 64.1431 15.1995 64.2151 16.4715C64.2271 16.6275 64.2331 16.8975 64.2331 17.2815C64.2331 17.6655 64.2271 17.9355 64.2151 18.0915C64.1431 19.3755 63.7051 20.3715 62.9011 21.0795C62.0971 21.7875 60.9451 22.1415 59.4451 22.1415ZM59.4451 19.9455C59.9731 19.9455 60.3631 19.7895 60.6151 19.4775C60.8671 19.1535 61.0111 18.6615 61.0471 18.0015C61.0591 17.8815 61.0651 17.6415 61.0651 17.2815C61.0651 16.9215 61.0591 16.6815 61.0471 16.5615C61.0111 15.9135 60.8611 15.4275 60.5971 15.1035C60.3451 14.7795 59.9611 14.6175 59.4451 14.6175C58.4491 14.6175 57.9211 15.2655 57.8611 16.5615L57.8431 17.2815L57.8611 18.0015C57.8851 18.6615 58.0231 19.1535 58.2751 19.4775C58.5391 19.7895 58.9291 19.9455 59.4451 19.9455Z" fill="black"/>
<path d="M71.385 22.1415C69.669 22.1415 68.325 21.7275 67.353 20.8995C66.393 20.0595 65.883 18.8475 65.823 17.2635C65.811 16.9395 65.805 16.4115 65.805 15.6795C65.805 14.9355 65.811 14.3955 65.823 14.0595C65.883 12.4995 66.405 11.2995 67.389 10.4595C68.373 9.60755 69.705 9.18155 71.385 9.18155C72.441 9.18155 73.389 9.36155 74.229 9.72155C75.069 10.0695 75.729 10.5735 76.209 11.2335C76.701 11.8815 76.953 12.6435 76.965 13.5195V13.5555C76.965 13.6515 76.923 13.7355 76.839 13.8075C76.767 13.8675 76.683 13.8975 76.587 13.8975H74.157C74.001 13.8975 73.881 13.8675 73.797 13.8075C73.713 13.7355 73.641 13.6095 73.581 13.4295C73.413 12.8175 73.149 12.3915 72.789 12.1515C72.429 11.8995 71.955 11.7735 71.367 11.7735C69.951 11.7735 69.219 12.5655 69.171 14.1495C69.159 14.4735 69.153 14.9715 69.153 15.6435C69.153 16.3155 69.159 16.8255 69.171 17.1735C69.219 18.7575 69.951 19.5495 71.367 19.5495C71.955 19.5495 72.435 19.4235 72.807 19.1715C73.179 18.9075 73.437 18.4815 73.581 17.8935C73.629 17.7135 73.695 17.5935 73.779 17.5335C73.863 17.4615 73.989 17.4255 74.157 17.4255H76.587C76.695 17.4255 76.785 17.4615 76.857 17.5335C76.941 17.6055 76.977 17.6955 76.965 17.8035C76.953 18.6795 76.701 19.4475 76.209 20.1075C75.729 20.7555 75.069 21.2595 74.229 21.6195C73.389 21.9675 72.441 22.1415 71.385 22.1415ZM83.0877 22.1415C81.5997 22.1415 80.4537 21.7875 79.6497 21.0795C78.8457 20.3715 78.4077 19.3755 78.3357 18.0915C78.3237 17.9355 78.3177 17.6655 78.3177 17.2815C78.3177 16.8975 78.3237 16.6275 78.3357 16.4715C78.4077 15.1995 78.8577 14.2095 79.6857 13.5015C80.5137 12.7815 81.6477 12.4215 83.0877 12.4215C84.5397 12.4215 85.6797 12.7815 86.5077 13.5015C87.3357 14.2095 87.7857 15.1995 87.8577 16.4715C87.8697 16.6275 87.8757 16.8975 87.8757 17.2815C87.8757 17.6655 87.8697 17.9355 87.8577 18.0915C87.7857 19.3755 87.3477 20.3715 86.5437 21.0795C85.7397 21.7875 84.5877 22.1415 83.0877 22.1415ZM83.0877 19.9455C83.6157 19.9455 84.0057 19.7895 84.2577 19.4775C84.5097 19.1535 84.6537 18.6615 84.6897 18.0015C84.7017 17.8815 84.7077 17.6415 84.7077 17.2815C84.7077 16.9215 84.7017 16.6815 84.6897 16.5615C84.6537 15.9135 84.5037 15.4275 84.2397 15.1035C83.9877 14.7795 83.6037 14.6175 83.0877 14.6175C82.0917 14.6175 81.5637 15.2655 81.5037 16.5615L81.4857 17.2815L81.5037 18.0015C81.5277 18.6615 81.6657 19.1535 81.9177 19.4775C82.1817 19.7895 82.5717 19.9455 83.0877 19.9455ZM90.1136 21.9615C89.9816 21.9615 89.8736 21.9195 89.7896 21.8355C89.7056 21.7515 89.6636 21.6435 89.6636 21.5115V13.0515C89.6636 12.9195 89.7056 12.8115 89.7896 12.7275C89.8736 12.6435 89.9816 12.6015 90.1136 12.6015H92.1836C92.3156 12.6015 92.4236 12.6495 92.5076 12.7455C92.6036 12.8295 92.6516 12.9315 92.6516 13.0515V13.7715C93.3116 12.9915 94.1996 12.6015 95.3156 12.6015H96.1076C96.2396 12.6015 96.3476 12.6435 96.4316 12.7275C96.5156 12.8115 96.5576 12.9195 96.5576 13.0515V14.9055C96.5576 15.0255 96.5156 15.1335 96.4316 15.2295C96.3476 15.3135 96.2396 15.3555 96.1076 15.3555H94.3616C93.8696 15.3555 93.4856 15.4935 93.2096 15.7695C92.9456 16.0335 92.8136 16.4115 92.8136 16.9035V21.5115C92.8136 21.6435 92.7656 21.7515 92.6696 21.8355C92.5856 21.9195 92.4776 21.9615 92.3456 21.9615H90.1136ZM102.178 22.1415C100.69 22.1415 99.5435 21.7875 98.7395 21.0795C97.9355 20.3715 97.4975 19.3755 97.4255 18.0915C97.4135 17.9355 97.4075 17.6655 97.4075 17.2815C97.4075 16.8975 97.4135 16.6275 97.4255 16.4715C97.4975 15.1995 97.9475 14.2095 98.7755 13.5015C99.6035 12.7815 100.738 12.4215 102.178 12.4215C103.63 12.4215 104.77 12.7815 105.598 13.5015C106.426 14.2095 106.876 15.1995 106.948 16.4715C106.96 16.6275 106.966 16.8975 106.966 17.2815C106.966 17.6655 106.96 17.9355 106.948 18.0915C106.876 19.3755 106.438 20.3715 105.634 21.0795C104.83 21.7875 103.678 22.1415 102.178 22.1415ZM102.178 19.9455C102.706 19.9455 103.096 19.7895 103.348 19.4775C103.6 19.1535 103.744 18.6615 103.78 18.0015C103.792 17.8815 103.798 17.6415 103.798 17.2815C103.798 16.9215 103.792 16.6815 103.78 16.5615C103.744 15.9135 103.594 15.4275 103.33 15.1035C103.078 14.7795 102.694 14.6175 102.178 14.6175C101.182 14.6175 100.654 15.2655 100.594 16.5615L100.576 17.2815L100.594 18.0015C100.618 18.6615 100.756 19.1535 101.008 19.4775C101.272 19.7895 101.662 19.9455 102.178 19.9455ZM109.203 21.9615C109.071 21.9615 108.963 21.9195 108.879 21.8355C108.795 21.7515 108.753 21.6435 108.753 21.5115V13.0515C108.753 12.9195 108.795 12.8115 108.879 12.7275C108.963 12.6435 109.071 12.6015 109.203 12.6015H111.273C111.405 12.6015 111.513 12.6435 111.597 12.7275C111.693 12.8115 111.741 12.9195 111.741 13.0515V13.7355C112.065 13.3395 112.479 13.0215 112.983 12.7815C113.499 12.5415 114.081 12.4215 114.729 12.4215C115.785 12.4215 116.643 12.7815 117.303 13.5015C117.963 14.2095 118.293 15.2055 118.293 16.4895V21.5115C118.293 21.6315 118.251 21.7395 118.167 21.8355C118.083 21.9195 117.975 21.9615 117.843 21.9615H115.575C115.455 21.9615 115.347 21.9195 115.251 21.8355C115.167 21.7395 115.125 21.6315 115.125 21.5115V16.5975C115.125 16.0335 114.987 15.6015 114.711 15.3015C114.435 14.9895 114.039 14.8335 113.523 14.8335C113.019 14.8335 112.623 14.9895 112.335 15.3015C112.047 15.6015 111.903 16.0335 111.903 16.5975V21.5115C111.903 21.6315 111.861 21.7395 111.777 21.8355C111.693 21.9195 111.585 21.9615 111.453 21.9615H109.203ZM123.128 22.1415C122.492 22.1415 121.91 22.0215 121.382 21.7815C120.866 21.5295 120.458 21.1935 120.158 20.7735C119.87 20.3415 119.726 19.8675 119.726 19.3515C119.726 18.5235 120.062 17.8575 120.734 17.3535C121.418 16.8495 122.354 16.5015 123.542 16.3095L125.792 15.9675V15.7155C125.792 15.2595 125.696 14.9235 125.504 14.7075C125.312 14.4915 124.988 14.3835 124.532 14.3835C124.256 14.3835 124.028 14.4315 123.848 14.5275C123.668 14.6235 123.482 14.7555 123.29 14.9235C123.122 15.0675 122.996 15.1635 122.912 15.2115C122.876 15.3075 122.81 15.3555 122.714 15.3555H120.752C120.632 15.3555 120.53 15.3195 120.446 15.2475C120.374 15.1635 120.344 15.0675 120.356 14.9595C120.368 14.6355 120.524 14.2755 120.824 13.8795C121.136 13.4835 121.604 13.1415 122.228 12.8535C122.864 12.5655 123.644 12.4215 124.568 12.4215C126.044 12.4215 127.136 12.7515 127.844 13.4115C128.552 14.0595 128.906 14.9355 128.906 16.0395V21.5115C128.906 21.6315 128.864 21.7395 128.78 21.8355C128.696 21.9195 128.588 21.9615 128.456 21.9615H126.368C126.248 21.9615 126.14 21.9195 126.044 21.8355C125.96 21.7395 125.918 21.6315 125.918 21.5115V20.8815C125.654 21.2535 125.282 21.5595 124.802 21.7995C124.334 22.0275 123.776 22.1415 123.128 22.1415ZM123.974 20.0895C124.526 20.0895 124.97 19.9095 125.306 19.5495C125.654 19.1895 125.828 18.6615 125.828 17.9655V17.7135L124.298 17.9835C123.218 18.1755 122.678 18.5535 122.678 19.1175C122.678 19.4175 122.804 19.6575 123.056 19.8375C123.308 20.0055 123.614 20.0895 123.974 20.0895Z" fill="#EC5863"/>
<path d="M19.3317 3.03234C20.8368 2.9146 22.1778 3.96527 22.3263 5.37824C22.44 6.46002 21.8214 7.43958 20.8509 7.89304L20.9699 9.17539L21.444 10.143C21.5521 10.3643 21.7658 10.513 22.0105 10.5466C22.6703 10.6372 23.3061 10.8022 23.9106 11.032C24.1154 11.1101 24.3435 11.0961 24.5337 10.9893L25.153 10.6435L25.7966 9.68351C25.5999 9.1781 25.6441 8.58937 25.9689 8.1048C26.5197 7.28343 27.6596 7.08519 28.465 7.69429C29.1588 8.21861 29.3529 9.19509 28.9115 9.93921C28.6307 10.4133 28.1625 10.7001 27.6611 10.7707L26.9482 11.8347L26.8688 12.5038C26.8415 12.7338 26.922 12.9624 27.0838 13.1294C27.6272 13.6931 28.0947 14.3301 28.4697 15.0228C28.5956 15.2559 28.8362 15.4052 29.1012 15.4211L30.4652 15.5042L32.1433 15.0811C32.3415 14.3647 32.9104 13.772 33.6867 13.5762C34.8604 13.2806 36.0554 14.0042 36.3253 15.1863C36.569 16.2529 35.9476 17.3481 34.903 17.6886C34.0875 17.9537 33.2423 17.7125 32.6884 17.1553L31.0004 17.5804L29.9472 18.2345C29.6646 18.41 29.4982 18.72 29.5002 19.0518C29.5002 19.0538 29.5002 19.0551 29.5003 19.0571C29.5026 19.6287 29.4477 20.1881 29.3428 20.7292C29.2797 21.0514 29.3837 21.3838 29.6246 21.6095L30.544 22.4706L32.5638 23.4335C33.0251 23.2068 33.5832 23.1857 34.0845 23.4242C34.9831 23.8528 35.344 24.9486 34.8519 25.8254C34.4296 26.5761 33.4921 26.9021 32.6886 26.5765C32.1407 26.3545 31.7732 25.8931 31.6488 25.3706L29.6158 24.4019L28.2534 24.213C28.0021 24.1787 27.7493 24.2745 27.591 24.4707C26.9631 25.2445 26.2038 25.908 25.346 26.4273C25.1328 26.5563 25.0042 26.7878 25.0033 27.0361L24.9958 28.3872L25.47 29.8657C26.3962 29.9683 27.2213 30.597 27.5224 31.536C27.9273 32.7977 27.2347 34.1433 25.974 34.5547C24.714 34.9661 23.3311 34.2761 22.9091 33.0242C22.6135 32.1479 22.8523 31.2263 23.4461 30.6022L22.9425 29.0329L22.1152 27.8875C21.9929 27.7171 21.7887 27.6266 21.5797 27.6439C21.3477 27.6631 21.1137 27.6733 20.877 27.6736C19.591 27.6754 18.3689 27.3961 17.2688 26.8959C17.1074 26.8229 16.922 26.8252 16.7632 26.9025L16.0658 27.2432L15.3694 28.166C15.5378 28.6819 15.4607 29.2668 15.1096 29.7324C14.5132 30.5225 13.3639 30.6574 12.5939 30.0051C11.9308 29.4435 11.7913 28.4578 12.2735 27.7391C12.5806 27.2814 13.0634 27.0207 13.5682 26.9781L14.3398 25.9552L14.5203 24.9253C13.817 24.1769 13.2459 23.3042 12.8442 22.345L11.3652 22.1053L9.83979 22.4125C9.60947 23.3158 8.91625 24.0498 7.98871 24.2484C6.6782 24.5285 5.39702 23.6346 5.12763 22.2512C4.85825 20.8684 5.70147 19.5201 7.01197 19.2399C7.99272 19.0302 8.95646 19.4777 9.49242 20.2962L10.9311 20.0061L12.0643 19.2969C12.1384 19.2504 12.1827 19.1694 12.1824 19.0825L12.1824 19.0812C12.1757 17.4609 12.623 15.9432 13.4053 14.6465C13.4478 14.5753 13.4533 14.4877 13.4175 14.4126L12.8961 13.3053L11.4825 12.0136C10.9778 12.0921 10.4421 11.9497 10.0362 11.5786C9.30293 10.9079 9.27975 9.7581 10.0073 9.06324C10.6458 8.45409 11.6681 8.42915 12.3398 9.00577C12.7746 9.37887 12.9767 9.91498 12.9395 10.439L14.3531 11.7307L15.4923 12.1492C15.5713 12.1785 15.6594 12.1653 15.7276 12.1162C16.4303 11.6049 17.2136 11.1968 18.0553 10.9147C18.2864 10.8367 18.4658 10.6535 18.5312 10.4195L18.8234 9.36719L18.6961 8.00058C17.7223 7.66677 16.9831 6.83086 16.875 5.80331C16.7264 4.39034 17.8265 3.14942 19.3317 3.03234Z" fill="#EC5863"/>
<path d="M27.2531 19.0848C27.2385 15.5606 24.356 12.7077 20.815 12.7126C17.2739 12.7175 14.4151 15.5785 14.4297 19.1026C14.4443 22.6268 17.3268 25.4798 20.8679 25.4748C24.409 25.4699 27.2677 22.609 27.2531 19.0848Z" fill="#F58A97"/>
<path d="M20.8598 23.5299C17.6509 23.5344 14.9829 21.1921 14.4997 18.1301C14.4523 18.4472 14.4284 18.772 14.4297 19.1026C14.4443 22.6269 17.3267 25.4798 20.8679 25.4748C24.409 25.4699 27.2677 22.6091 27.2531 19.0848C27.2517 18.7542 27.2251 18.4295 27.1751 18.1124C26.7172 21.1757 24.0687 23.5254 20.8598 23.5299Z" fill="#F07281"/>
<path d="M9.22947 29.8465C9.22531 28.843 8.40447 28.0305 7.39607 28.0319C6.38767 28.0333 5.57357 28.848 5.57773 29.8516C5.58189 30.8552 6.40273 31.6677 7.41113 31.6663C8.41954 31.6649 9.23363 30.8501 9.22947 29.8465Z" fill="#EB5569"/>
<path d="M32.6795 30.3106C32.6767 29.6478 32.1345 29.1111 31.4685 29.1121C30.8024 29.113 30.2647 29.6511 30.2675 30.314C30.2702 30.9769 30.8124 31.5135 31.4784 31.5126C32.1445 31.5116 32.6822 30.9735 32.6795 30.3106Z" fill="#EB5569"/>
<path d="M35.1396 8.26967C35.1355 7.29329 34.337 6.50289 33.3559 6.50425C32.3748 6.50561 31.5828 7.29823 31.5869 8.27462C31.5909 9.251 32.3895 10.0414 33.3706 10.04C34.3516 10.0387 35.1436 9.24606 35.1396 8.26967Z" fill="#EB5569"/>
<path d="M20.7374 21.0526C20.7336 20.1423 19.9891 19.4054 19.0745 19.4067C18.1598 19.408 17.4214 20.1469 17.4252 21.0572C17.4289 21.9675 18.1735 22.7044 19.0881 22.7031C20.0028 22.7018 20.7412 21.9629 20.7374 21.0526Z" fill="#EB5569"/>
<path d="M25.347 19.7231C25.3445 19.1035 24.8377 18.6019 24.2152 18.6028C23.5926 18.6037 23.09 19.1067 23.0926 19.7262C23.0951 20.3458 23.6019 20.8474 24.2245 20.8465C24.847 20.8457 25.3496 20.3427 25.347 19.7231Z" fill="#EB5569"/>
<path d="M21.776 16.2053C21.7738 15.6851 21.3483 15.2639 20.8255 15.2646C20.3027 15.2653 19.8807 15.6877 19.8829 16.208C19.885 16.7283 20.3105 17.1494 20.8333 17.1487C21.3561 17.148 21.7781 16.7256 21.776 16.2053Z" fill="#EB5569"/>
</svg>
